<?xml version="1.0" standalone="no"?>
<!DOCTYPE svg PUBLIC "-//W3C//DTD SVG 20010904//EN"
 "http://www.w3.org/TR/2001/REC-SVG-20010904/DTD/svg10.dtd">
<svg version="1.0" xmlns="http://www.w3.org/2000/svg"
 width="1063.000000pt" height="650.000000pt" viewBox="0 0 1063.000000 650.000000"
 preserveAspectRatio="xMidYMid meet">

<g transform="translate(0.000000,650.000000) scale(0.100000,-0.100000)"
fill="#000000" stroke="none">
<path d="M5256 6404 c-141 -34 -313 -169 -415 -324 -106 -162 -204 -402 -266
-650 -64 -254 -85 -409 -36 -260 59 181 155 374 243 487 22 30 78 89 123 132
95 89 205 150 320 177 97 22 266 15 354 -16 132 -47 275 -167 374 -318 89
-133 189 -373 227 -545 7 -31 15 -55 17 -53 8 7 -29 275 -57 416 -110 549
-319 880 -605 955 -72 18 -200 18 -279 -1z"/>
<path d="M5310 5880 c-306 -48 -543 -342 -704 -871 -30 -102 -83 -341 -100
-454 -3 -22 14 20 38 92 146 434 373 700 666 779 88 24 245 24 325 0 289 -86
509 -375 636 -836 27 -98 28 -101 23 -45 -57 616 -248 1087 -508 1257 -103 67
-251 98 -376 78z"/>
<path d="M5273 5336 c-340 -78 -601 -482 -733 -1136 -39 -191 -37 -209 9 -74
152 442 393 707 702 770 416 84 754 -231 925 -861 24 -90 24 -90 19 -30 -50
534 -202 971 -409 1179 -61 61 -148 116 -221 141 -69 23 -214 28 -292 11z"/>
<path d="M4501 5064 c0 -11 3 -14 6 -6 3 7 2 16 -1 19 -3 4 -6 -2 -5 -13z"/>
<path d="M4501 3994 c0 -11 3 -14 6 -6 3 7 2 16 -1 19 -3 4 -6 -2 -5 -13z"/>
<path d="M6430 3731 c185 -187 280 -329 341 -511 78 -232 34 -457 -120 -623
-110 -117 -235 -180 -424 -213 -169 -30 -463 -10 -682 46 -38 10 -71 17 -73
15 -4 -3 163 -66 278 -105 121 -40 326 -93 455 -116 141 -26 452 -26 545 -1
171 46 297 139 365 268 114 216 71 456 -133 744 -75 105 -339 369 -472 471
-206 158 -213 160 -80 25z"/>
<path d="M4325 3773 c-231 -174 -451 -389 -563 -548 -78 -109 -146 -247 -166
-335 -18 -75 -20 -204 -5 -270 33 -144 139 -272 281 -340 127 -60 214 -74 437
-67 211 6 368 34 611 107 125 38 387 137 330 125 -440 -94 -679 -94 -919 1
-236 93 -387 315 -385 564 2 238 117 459 378 728 60 61 107 112 105 112 -2 -1
-49 -35 -104 -77z"/>
<path d="M3840 3508 c-152 -114 -249 -200 -381 -336 -336 -347 -440 -655 -312
-922 67 -139 189 -233 370 -282 65 -18 106 -21 253 -21 247 0 461 39 773 144
122 41 303 114 233 94 -65 -19 -209 -46 -310 -60 -279 -36 -530 -2 -704 96
-84 48 -192 161 -235 247 -150 300 -44 642 312 1005 57 59 103 107 100 107 -2
0 -47 -32 -99 -72z"/>
<path d="M6910 3474 c151 -156 226 -256 292 -389 121 -243 124 -458 8 -656
-140 -238 -442 -354 -832 -320 -111 9 -320 45 -394 66 -63 18 95 -45 216 -86
509 -175 919 -201 1179 -76 82 39 185 140 224 218 120 242 51 515 -209 829
-117 142 -375 376 -530 480 -44 30 -39 23 46 -66z"/>
<path d="M7390 3212 c64 -64 142 -151 172 -192 275 -371 289 -719 38 -971
-133 -133 -297 -195 -550 -206 -152 -6 -285 6 -459 42 -63 14 -116 23 -118 21
-7 -6 246 -96 368 -131 350 -101 677 -130 879 -79 265 67 422 256 423 509 0
53 -7 117 -17 155 -24 91 -93 229 -167 335 -80 113 -338 372 -479 481 -207
159 -216 162 -90 36z"/>
<path d="M3359 3247 c-154 -116 -246 -197 -370 -323 -356 -365 -461 -683 -316
-958 64 -122 183 -212 342 -258 72 -21 99 -23 285 -22 183 0 220 3 340 28 74
15 202 47 285 71 142 42 382 128 394 142 3 3 -3 3 -14 -1 -43 -16 -186 -45
-295 -61 -157 -24 -420 -17 -535 14 -233 61 -400 209 -469 414 -57 171 -32
357 78 562 62 117 143 222 269 353 61 61 108 112 106 112 -2 0 -47 -33 -100
-73z"/>
<path d="M2470 1354 c-70 -42 -81 -56 -60 -78 8 -8 30 -1 132 43 l48 20 -18
30 c-9 17 -19 31 -22 30 -3 0 -39 -20 -80 -45z"/>
<path d="M1920 1221 c-117 -36 -170 -123 -170 -280 0 -69 5 -96 24 -136 42
-91 114 -135 219 -135 87 0 162 47 198 125 28 61 26 65 -36 65 -43 0 -55 -3
-55 -16 0 -26 -54 -72 -93 -79 -51 -10 -105 19 -131 69 -30 59 -28 177 4 233
29 52 77 78 127 68 39 -7 93 -54 93 -79 0 -13 12 -16 55 -16 50 0 55 2 55 23
0 34 -41 99 -79 124 -58 39 -146 53 -211 34z"/>
<path d="M5246 1215 c-50 -17 -104 -69 -127 -122 -28 -61 -35 -176 -16 -244
24 -80 54 -120 116 -151 134 -68 291 -6 331 130 l9 32 -54 0 c-43 0 -55 -4
-59 -18 -4 -10 -20 -32 -37 -48 -25 -24 -39 -29 -80 -29 -44 0 -54 4 -79 32
-16 18 -34 52 -41 75 -15 57 -6 159 18 200 24 43 77 71 122 64 36 -5 87 -46
97 -78 4 -14 16 -18 60 -18 61 0 63 4 35 65 -47 104 -177 152 -295 110z"/>
<path d="M5780 1221 c-125 -41 -178 -138 -168 -308 9 -162 93 -243 249 -243
110 0 192 50 226 139 13 33 18 74 18 142 0 86 -3 101 -30 154 -42 82 -95 115
-196 120 -41 3 -85 1 -99 -4z m153 -108 c42 -21 67 -84 67 -168 0 -83 -19
-129 -69 -162 -61 -41 -154 -22 -190 38 -43 71 -35 209 16 270 41 48 108 57
176 22z"/>
<path d="M7849 1216 c-98 -35 -148 -112 -156 -240 -7 -112 13 -183 70 -239
104 -104 287 -85 357 37 43 74 41 86 -18 86 -45 0 -50 -3 -73 -37 -31 -48 -64
-65 -112 -59 -77 9 -117 74 -117 188 0 111 40 171 120 184 42 7 97 -26 118
-69 12 -24 18 -27 66 -27 l54 0 -8 35 c-26 117 -174 187 -301 141z"/>
<path d="M8539 1215 c-58 -19 -123 -86 -141 -147 -7 -23 -12 -81 -13 -128 0
-75 4 -92 30 -145 47 -94 121 -131 246 -123 112 8 183 63 210 162 16 60 7 223
-15 266 -26 49 -55 79 -101 102 -52 27 -154 33 -216 13z m171 -104 c47 -33 65
-79 65 -161 0 -129 -56 -196 -158 -187 -82 7 -127 68 -127 174 0 78 14 124 48
157 51 48 119 55 172 17z"/>
<path d="M2315 963 c-49 -136 -90 -254 -93 -261 -3 -10 9 -12 53 -10 l58 3 17
50 17 50 98 0 98 0 17 -50 17 -50 56 -3 c31 -2 57 1 57 6 0 4 -40 120 -88 258
l-89 249 -65 3 -65 3 -88 -248z m185 28 c16 -54 30 -101 30 -105 0 -3 -29 -6
-65 -6 -36 0 -65 3 -65 6 0 12 62 204 65 204 2 0 18 -44 35 -99z"/>
<path d="M2770 950 l0 -260 50 0 50 0 0 168 c0 98 4 161 9 152 5 -8 21 -60 36
-115 14 -55 33 -124 41 -152 l15 -53 54 0 54 0 14 48 c8 26 29 103 48 172 l34
125 3 -172 2 -173 50 0 50 0 0 260 0 260 -78 0 -78 0 -43 -177 c-24 -98 -47
-182 -51 -186 -4 -5 -27 74 -51 175 l-44 183 -83 3 -82 3 0 -261z"/>
<path d="M3435 963 c-48 -136 -90 -254 -93 -261 -3 -10 9 -12 53 -10 l57 3 20
53 20 53 95 -3 96 -3 17 -50 17 -50 56 -3 c31 -2 57 1 57 6 0 4 -40 120 -88
258 l-89 249 -65 3 -65 3 -88 -248z m185 30 c16 -54 30 -101 30 -105 0 -4 -29
-8 -65 -8 -36 0 -65 3 -65 6 0 11 63 204 66 204 2 0 17 -44 34 -97z"/>
<path d="M3890 950 l0 -260 55 0 55 0 0 100 0 100 83 0 c110 0 117 -7 117
-118 l0 -82 50 0 50 0 0 104 c0 101 -1 105 -26 125 l-27 21 25 20 c52 41 62
132 21 189 -39 52 -73 61 -245 61 l-158 0 0 -260z m310 150 c27 -27 25 -66 -5
-95 -22 -23 -32 -25 -110 -25 l-85 0 0 70 0 70 90 0 c77 0 93 -3 110 -20z"/>
<path d="M4536 1168 c-46 -124 -166 -464 -166 -471 0 -4 26 -7 57 -5 l56 3 17
50 17 50 98 0 98 0 15 -52 15 -53 58 0 c33 0 59 2 59 4 0 4 -163 466 -175 499
-6 14 -19 17 -70 17 l-63 0 -16 -42z m138 -280 c-9 -14 -124 -9 -124 4 0 7 14
56 32 108 l32 95 32 -100 c18 -55 30 -103 28 -107z"/>
<path d="M6180 950 l0 -260 45 0 45 0 0 165 c0 91 3 165 8 165 4 0 27 -75 51
-166 l44 -165 56 3 56 3 47 170 47 170 0 -172 1 -173 50 0 50 0 0 260 0 261
-77 -3 -77 -3 -45 -182 c-25 -101 -48 -183 -51 -183 -3 0 -25 83 -49 185 l-45
185 -78 0 -78 0 0 -260z"/>
<path d="M6760 950 l0 -260 195 0 195 0 0 45 0 45 -145 0 -145 0 0 70 0 70
130 0 130 0 0 45 0 45 -130 0 -130 0 0 55 0 55 140 0 140 0 0 45 0 45 -190 0
-190 0 0 -260z"/>
<path d="M7210 950 l0 -260 50 0 50 0 0 100 0 100 83 0 c114 0 119 -5 125
-114 l5 -86 48 0 49 0 -1 93 c-1 105 -6 124 -39 142 l-23 13 21 11 c50 27 69
134 35 193 -34 57 -74 68 -248 68 l-155 0 0 -260z m302 153 c11 -10 18 -30 18
-54 0 -56 -24 -69 -132 -69 l-88 0 0 70 0 70 92 0 c71 0 95 -4 110 -17z"/>
<path d="M8210 950 l0 -260 55 0 55 0 0 260 0 260 -55 0 -55 0 0 -260z"/>
<path d="M2020 402 c-87 -43 -116 -184 -58 -280 26 -42 65 -62 123 -62 57 0
100 21 125 63 28 46 25 57 -15 57 -19 0 -35 -4 -35 -10 0 -22 -41 -50 -73 -50
-45 0 -75 34 -83 92 -16 118 75 195 139 118 18 -21 35 -30 56 -30 38 0 41 24
9 65 -42 53 -124 70 -188 37z"/>
<path d="M6015 406 c-63 -28 -95 -84 -95 -168 0 -66 31 -131 74 -158 42 -25
121 -27 156 -3 17 12 25 13 28 5 2 -7 15 -12 28 -12 24 0 24 1 24 90 l0 90
-70 0 c-68 0 -70 -1 -70 -24 0 -21 5 -25 37 -28 46 -4 51 -18 20 -54 -33 -38
-87 -39 -124 -2 -50 51 -40 177 16 208 35 18 80 12 107 -15 27 -27 84 -35 84
-11 0 23 -42 68 -76 82 -42 17 -100 17 -139 0z"/>
<path d="M2797 248 c-31 -90 -57 -166 -57 -170 0 -5 15 -8 34 -8 30 0 36 4 46
35 l12 35 63 0 63 0 12 -35 c10 -31 16 -35 46 -35 19 0 34 3 34 8 0 4 -25 80
-57 170 l-57 162 -41 0 -40 0 -58 -162z m136 -50 c-2 -5 -19 -8 -38 -8 -19 0
-36 3 -38 8 -3 4 4 36 15 72 l21 65 22 -65 c12 -36 20 -68 18 -72z"/>
<path d="M3590 241 l0 -171 30 0 30 0 0 65 0 65 58 0 c32 0 63 -5 70 -12 7 -7
12 -36 12 -65 0 -52 0 -53 30 -53 l30 0 0 69 c0 47 -4 72 -14 80 -13 11 -12
15 5 32 30 30 26 99 -7 130 -23 22 -35 24 -135 27 l-109 4 0 -171z m198 97 c7
-7 12 -21 12 -33 0 -35 -20 -45 -87 -45 l-63 0 0 45 0 45 63 0 c36 0 68 -5 75
-12z"/>
<path d="M4390 381 c0 -29 2 -30 53 -33 l52 -3 3 -137 3 -138 29 0 30 0 0 140
0 140 55 0 c54 0 55 0 55 30 l0 30 -140 0 -140 0 0 -29z"/>
<path d="M5215 393 c-4 -10 -29 -79 -55 -153 -26 -74 -51 -143 -55 -152 -6
-15 -1 -18 29 -18 33 0 39 4 52 35 14 35 15 35 78 35 l64 0 6 -35 c7 -33 9
-35 46 -35 22 0 40 1 40 3 0 1 -26 76 -59 167 l-58 165 -40 3 c-31 2 -42 -1
-48 -15z m68 -126 c24 -74 23 -77 -23 -77 -24 0 -40 5 -40 12 0 19 33 118 40
118 3 0 14 -24 23 -53z"/>
<path d="M6780 240 l0 -170 125 0 125 0 0 30 0 30 -96 0 -95 0 3 43 3 42 83 3
c79 3 82 4 82 27 0 23 -3 24 -82 27 l-83 3 0 35 0 35 93 3 92 3 0 29 0 30
-125 0 -125 0 0 -170z"/>
<path d="M7570 241 l0 -171 30 0 29 0 3 112 3 113 70 -113 c66 -105 72 -112
103 -112 l32 0 0 170 0 170 -30 0 -30 0 0 -107 c0 -77 -3 -104 -11 -96 -6 6
-37 53 -68 104 -54 89 -60 94 -94 97 l-37 3 0 -170z"/>
<path d="M8438 247 c-32 -90 -58 -166 -58 -170 0 -4 15 -7 34 -7 30 0 36 4 46
35 l12 35 63 0 63 0 12 -35 c11 -32 15 -35 50 -35 l39 0 -23 63 c-13 34 -40
110 -61 170 l-38 107 -41 0 -41 0 -57 -163z m122 15 c10 -34 15 -63 12 -66 -7
-8 -67 -8 -74 0 -3 3 4 34 15 69 12 36 23 63 25 61 2 -2 11 -31 22 -64z"/>
</g>
</svg>
